<svg width="800px" height="800px" fill="#000000" version="1.1" viewBox="0 0 569.49 569.49" xml:space="preserve" xmlns="http://www.w3.org/2000/svg" xmlns:xlink="http://www.w3.org/1999/xlink">
<title>GuiPad</title>

<!-- Define Gradients -->
<defs>
    <linearGradient id="linearGradient1000" x1="432.24" x2="30.402" y1="474.14" y2="-34.2" gradientTransform="translate(-7.6305 -23.292)" gradientUnits="userSpaceOnUse"><stop stop-color="#81c0ff" offset="0"/><stop stop-color="#004080" offset="1"/></linearGradient>
    <linearGradient id="linearGradient10769" x1="418.12" x2="391.63" y1="376.53" y2="525.2" gradientTransform="matrix(1.0092 0 0 1.0092 -4.4022 -25.802)" gradientUnits="userSpaceOnUse"><stop stop-color="#00ba18" offset="0"/><stop stop-color="#b9e055" offset="1"/></linearGradient>
</defs>

<!-- TELEVISION -->
<g id="Television"><title>Television</title>
    <path id="Base" d="m193.5 349.42c-2.9728 0-5.3654 5.2609-5.3654 11.796v24.814h-43.999c-5.2024 0-9.3905 2.7054-9.3905 6.0662v12.783c0 3.3608 4.1881 6.0662 9.3905 6.0662h230.37c5.2024 0 9.3905-2.7054 9.3905-6.0662v-12.783c0-3.3607-4.1881-6.0662-9.3905-6.0662h-43.999v-24.814c0-6.535-2.394-11.796-5.3668-11.796z" fill="#000" stroke-linecap="round" stroke-linejoin="round" stroke-width="26.71" style="paint-order:markers fill stroke"><title>Base</title></path>
    <rect id="Screen" x="12.768" y="62.599" width="543.96" height="288.6" rx="27.566" fill="url(#linearGradient1000)" stroke="#000" stroke-linecap="round" stroke-linejoin="round" stroke-width="25.536" style="paint-order:markers fill stroke"><title>Screen</title></rect>
</g>

<!-- GAMEPAD -->
<g id="Gamepad"><title>Gamepad</title>
    <g><path id="Model" d="m414.74 310.63c-21.445-6.8598-29.896-18.18-38.765-30.417-4.4192-6.0971-41.306-9.5921-48.397-7.7789-47.866 12.239-132.79 138.21-87.302 191.7 19.051 22.403 56.708-20.737 86.749-24.621 0.77209-0.0999 29.729-2.5903 59.116 4.8007 27.74 6.9769 43.614 12.997 57.951 23.967 24.592 18.818 30.718 78.777 60.471 70.522 67.659-18.772 68.004-170.7 35.24-207.68-4.854-5.4784-37.353-23.273-44.431-20.704-30.937 9.079-49.556 8.4238-80.631 0.2058z" fill="#ff695e" stroke-linecap="round" stroke-linejoin="round" stroke-width="9.3788" style="paint-order:markers fill stroke"><title>Model</title></path><path id="DPad" d="m328.3 321.51c-3.186-0.87987-6.727 1.9461-7.9394 6.3363l-4.6773 16.937-16.937-4.6773c-4.3902-1.2124-8.6328 0.3764-9.5127 3.5624l-3.0652 11.099c-0.87988 3.1861 1.9461 6.727 6.3363 7.9394l16.937 4.6773-4.6773 16.937c-1.2124 4.3902 0.3764 8.6328 3.5624 9.5127l11.099 3.0652c3.186 0.87988 6.727-1.9461 7.9394-6.3363l4.6773-16.937 16.937 4.6773c4.3902 1.2124 8.6328-0.37639 9.5127-3.5624l3.0652-11.099c0.87988-3.186-1.9461-6.727-6.3363-7.9394l-16.937-4.6773 4.6773-16.937c1.2124-4.3902-0.37639-8.6328-3.5624-9.5127z" fill="#000" stroke-linecap="round" stroke-linejoin="round" stroke-width="9.8472" style="paint-order:markers fill stroke"><title>DPad</title></path>
<!-- BUTTONS -->
    <g id="Buttons" transform="rotate(15.768 562.55 418.07)" fill="#000">
    <title>Buttons</title><g fill="#000" stroke-linecap="round" stroke-linejoin="round" stroke-width="7.1187">
        <ellipse id="ButtonY" transform="matrix(1.2472 -.42476 .42476 1.2472 -324.41 142.15)" cx="525.93" cy="374.27" rx="11.471" ry="11.679" style="paint-order:markers fill stroke"><title>ButtonY</title></ellipse>
        <ellipse id="ButtonB" transform="matrix(1.2472 -.42476 .42476 1.2472 -324.41 142.15)" cx="509.18" cy="423.45" rx="11.471" ry="11.679" style="paint-order:markers fill stroke"><title>ButtonB</title></ellipse>
        <ellipse id="ButtonA" transform="matrix(.42476 1.2472 -1.2472 .42476 768.09 -395.14)" cx="525.93" cy="374.27" rx="11.471" ry="11.679" style="paint-order:markers fill stroke"><title>ButtonA</title></ellipse>
        <ellipse id="ButtonX" transform="matrix(.42476 1.2472 -1.2472 .42476 768.09 -395.14)" cx="509.18" cy="423.45" rx="11.471" ry="11.679" style="paint-order:markers fill stroke"><title>ButtonX</title></ellipse>
</g></g></g></g>

<g id="Overlay" fill="#000"><title>Overlay</title>
    <g transform="translate(0 -21.356)" fill="#fff" opacity=".95695" stroke-linecap="round" stroke-linejoin="bevel" stroke-width="8.0718" aria-label="GuiPad">
    <!-- TEXT -->
        <path id="LetterG" d="m84.909 215.09h30.491q9.8484 12.212 9.8484 25.763 0 15.757-11.582 26.472-11.503 10.715-28.363 10.715-21.903 0-37.188-16.624-15.285-16.624-15.285-40.497 0-23.951 15.521-39.866 15.6-15.915 38.921-15.915 7.9575 0 17.648 3.2303v31.988q-7.5636-3.5454-13.788-3.5454-11.267 0-18.436 7.012-7.0908 7.012-7.0908 18.2 0 11.424 6.6181 18.121 6.6181 6.6969 17.885 6.6969 7.1696 0 7.1696-4.1757 0-3.1515-4.7272-3.1515h-7.6424z"><title>LetterG</title></path>
        <path id="LetterU" d="m136.04 197.92h29.466v44.357q0 6.6969 5.5939 6.6969 5.5151 0 5.5151-6.6969v-44.357h29.466v43.806q0 15.285-10.164 25.842-10.164 10.479-24.897 10.479-16.782 0-27.024-12.212-7.9575-9.5332-7.9575-26.472z"><title>LetterU</title></path>
        <path id="LetterI" d="m252.73 196.81v78.551h-29.466v-78.551zm-14.654-35.06q5.9878 0 10.321 4.2545 4.4121 4.1757 4.4121 9.9272 0 6.1454-4.1757 10.085-4.0969 3.9394-10.557 3.9394t-10.636-3.9394q-4.0969-3.9394-4.0969-10.085 0-5.7515 4.3333-9.9272 4.4121-4.2545 10.4-4.2545z"><title>LetterI</title></path>
        <path id="LetterP" d="m307.25 238.18v-28.206q9.6908 0 9.6908-7.406 0-6.7757-7.406-6.7757-7.4848 0-7.4848 9.2969v70.278h-31.988v-66.969q0-10.4 2.0485-17.018 2.1272-6.6969 7.1696-12.448 5.6727-6.3818 14.182-10.085 8.509-3.703 17.57-3.703 16.388 0 27.497 11.03 11.188 11.03 11.188 27.339 0 15.836-10.006 25.685-9.1393 9.0605-27.575 9.0605z"><title>LetterP</title></path>
        <path id="LetterA" d="m404.39 245.9v30.491q-3.6242 0.6303-6.6181 0.6303-17.727 0-29.545-11.66-11.818-11.66-11.818-29.23 0-17.097 11.897-28.994 11.976-11.897 29.072-11.897 19.066 0 30.018 11.188 11.03 11.109 11.03 30.412v38.527h-29.466v-36.4q0-6.2242-3.0727-9.9272-2.9939-3.703-8.1151-3.703-4.6484 0-8.0363 3.3878-3.3878 3.3878-3.3878 8.0363 0 4.8848 3.0727 8.0363 3.0727 3.1515 7.7999 3.1515 3.8606 0 7.1696-2.0485z"><title>LetterA</title></path>
        <path id="LetterD" d="m503.98 167.82h29.466v65.472q0 18.042-9.4545 29.388-5.4363 6.5393-13.867 10.4-8.3514 3.8606-17.176 3.8606-17.57 0-29.624-11.818-12.054-11.818-12.054-28.994 0-16.624 11.976-28.757 11.976-12.133 28.363-12.133 2.6 0 7.8787 0.47272v32.46q-3.6242-2.8363-7.2484-2.8363-4.5696 0-7.8787 3.3878-3.2303 3.3091-3.2303 8.0363 0 4.5696 3.3878 7.8787 3.3878 3.2303 8.1151 3.2303 11.345 0 11.345-15.679z"><title>LetterD</title>
    </path></g>
    
    <!-- GOO -->
    <path id="Goo" d="m240.55 466.94c11.556 13.934-12.739 44.903-2.6415 58.209 4.4148 5.8178 19.721-1.6037 15.859-17.116-6.2267-25.01-10.242-34.474-1.6681-37.143 7.3828-0.21434 14.187-2.0443 20.232-4.9363 15.216 16.677-2.5771 33.101 5.3776 42.679 4.7406 5.708 9.4017-0.0523 9.5908-4.1822 0.33815-7.3858-5.4624-18.414-3.6462-27.47 1.9596-9.7713 8.9033-18.512 15.057-25.829 6.6077-3.6476 13.014-5.8464 19.395-7.8548 5.7815-1.7596 10.073-0.0217 12.288 2.0997 16.646 18.906-16.846 48.207-2.4144 63.887 3.4981 3.8006 11.769 4.291 15.481 0.69834 12.697-12.291-10.31-38.2-0.66702-53.008 5.6674-8.7032 19.575-17.291 28.652-12.242 14.119 7.8534 7.5516 32.547 7.3272 47.911-0.21398 14.655 18.326 13.241 11.842-1.6399-5.6557-12.98-19.001-43.969 11.398-42.266 14.059 4.1782 24.619 8.5244 33.896 14.276 8.2958 11.06 3.8426 38.956-0.37129 47.418-5.1298 10.301-6.515 17.11-1.0466 25.323 5.4256 8.1485 13.174 9.2631 20.77 1.777 3.6049-3.5528 6.0897-13.435-0.58015-24.601-8.0128-13.415-11.769-37.394-5.2656-39.182 20.29 22.967 27.756 73.429 55.351 65.773 18.928-5.2514 32.616-20.851 41.839-41.421 5.8818 10.815-7.4513 25.227-2.0605 33.828 2.6767 4.2706 10.401 3.5386 11.582-1.4673 2.3128-9.8095-6.0448-15.403-5.329-28.574 0.64892-11.94 1.2655-17.082-39.09-31.813-55.046-20.093-57.465-55.288-144.14-59.361-84.453-3.9687-135.92 26.528-135.92 39.219 0 4.8887 5.0195 12.319 8.9096 17.01z" fill="url(#linearGradient10769)" stroke-linecap="round" stroke-linejoin="round" stroke-width="7.1838" style="paint-order:markers fill stroke"><title>Goo</title></path>
</g>
</svg>